<svg width="227" height="112" viewBox="0 0 227 112" fill="none" xmlns="http://www.w3.org/2000/svg">
<path d="M139.823 110.436L46.8237 110.468C42.1517 110.47 37.9666 108.055 35.6292 104.009C34.4603 101.986 33.8758 99.7661 33.875 97.5461C33.8742 95.3263 34.4575 93.106 35.6247 91.0821L82.0947 6.46719C84.4296 2.41909 88.613 0.0016167 93.2851 8.10531e-07C97.9572 -0.00161508 102.142 2.41296 104.48 6.45945L151.014 91.0527C152.18 93.0707 152.763 95.2877 152.763 97.5063C152.763 99.725 152.18 101.945 151.013 103.969C148.678 108.017 144.495 110.435 139.823 110.436ZM35.044 97.5445C35.0439 99.5652 45.306 95.211 46.3691 97.0515C48.4957 100.733 42.5727 109.303 46.8233 109.302C46.8233 109.302 147.879 107.069 150.003 103.386C151.064 101.545 151.595 99.5248 151.594 97.5053C151.594 95.4858 151.062 93.4665 149.998 91.6259L103.464 7.03262C101.343 3.36204 97.5361 1.16524 93.2855 1.16671C89.0369 1.16818 35.0442 95.5236 35.044 97.5445Z" fill="#101010"/>
<path d="M140.856 109.269C139.691 111.603 194.288 110.886 194.933 110.886C194.933 110.886 210.279 110.547 210.601 109.987C210.763 109.708 210.843 109.401 210.843 109.094C210.843 108.788 210.762 108.481 210.601 108.202L203.534 95.3556C203.212 94.7982 202.634 94.4646 201.989 94.4648C201.962 94.4649 201.922 94.4887 201.871 94.5345C192.444 102.96 180.827 108.53 168.186 108.719C154.744 108.918 140.93 109.121 140.856 109.269Z" fill="#101010"/>
<path d="M3.23846e-08 111.535C9.95426e-05 111.793 0.229496 112 0.51506 112L226.485 111.929C226.771 111.929 227 111.722 227 111.465C227 111.207 226.771 111 226.485 111L0.514706 111.071C0.229142 111.071 -9.94778e-05 111.278 3.23846e-08 111.535Z" fill="#101010"/>
<path d="M120.423 91.7756C143.937 91.7756 162.998 72.7097 162.998 49.1908C162.998 25.6718 143.937 6.60596 120.423 6.60596C96.9093 6.60596 77.8477 25.6718 77.8477 49.1908C77.8477 72.7097 96.9093 91.7756 120.423 91.7756Z" fill="#101010"/>
<path d="M120.431 75.2961C122.59 75.2961 124.34 73.5455 124.34 71.3861C124.34 69.2266 122.59 67.4761 120.431 67.4761C118.272 67.4761 116.521 69.2266 116.521 71.3861C116.521 73.5455 118.272 75.2961 120.431 75.2961Z" fill="white"/>
<path d="M120.414 23.0858C120.055 25.4724 120.698 25.9718 120.702 36.2609C120.705 46.55 122.84 60.3451 120.427 60.3459C118.014 60.3468 117.131 31.8767 108.752 29.3569C98.9013 26.3944 121.576 15.3599 120.414 23.0858Z" fill="white"/>
<path d="M63.2806 70.933L59.4341 79.0622C64.0843 75.7269 71.3477 72.8518 77.1277 71.3119C71.7422 68.71 65.1523 64.5148 61.2153 60.3613L63.4277 68.9508C37.4895 63.6665 18.8628 43.7635 18.8549 20.9645L17.918 20.6421C17.9262 44.4562 36.2952 65.5377 63.2806 70.933Z" fill="#101010"/>
</svg>
